<svg xmlns="http://www.w3.org/2000/svg" xmlns:xlink="http://www.w3.org/1999/xlink" width="500" zoomAndPan="magnify" viewBox="0 0 375 374.999991" height="500" preserveAspectRatio="xMidYMid meet" version="1.0"><defs><g/><clipPath id="27f2ea0c25"><path d="M 0.890625 16.644531 L 344.109375 16.644531 L 344.109375 359.863281 L 0.890625 359.863281 Z M 0.890625 16.644531 " clip-rule="nonzero"/></clipPath><clipPath id="80e8b44a41"><path d="M 172.5 16.644531 C 77.722656 16.644531 0.890625 93.476562 0.890625 188.253906 C 0.890625 283.03125 77.722656 359.863281 172.5 359.863281 C 267.277344 359.863281 344.109375 283.03125 344.109375 188.253906 C 344.109375 93.476562 267.277344 16.644531 172.5 16.644531 Z M 172.5 16.644531 " clip-rule="nonzero"/></clipPath><clipPath id="c8f2ba4bc0"><path d="M 0.890625 0.644531 L 344.109375 0.644531 L 344.109375 343.863281 L 0.890625 343.863281 Z M 0.890625 0.644531 " clip-rule="nonzero"/></clipPath><clipPath id="32f9874c19"><path d="M 172.5 0.644531 C 77.722656 0.644531 0.890625 77.476562 0.890625 172.253906 C 0.890625 267.03125 77.722656 343.863281 172.5 343.863281 C 267.277344 343.863281 344.109375 267.03125 344.109375 172.253906 C 344.109375 77.476562 267.277344 0.644531 172.5 0.644531 Z M 172.5 0.644531 " clip-rule="nonzero"/></clipPath><clipPath id="3f0b9dc33f"><rect x="0" width="345" y="0" height="344"/></clipPath><clipPath id="b75f49b1ed"><rect x="0" width="244" y="0" height="307"/></clipPath><clipPath id="d7ce7c6e9c"><rect x="0" width="345" y="0" height="360"/></clipPath></defs><g transform="matrix(1, 0, 0, 1, 15, 0)"><g clip-path="url(#d7ce7c6e9c)"><g clip-path="url(#27f2ea0c25)"><g clip-path="url(#80e8b44a41)"><g transform="matrix(1, 0, 0, 1, 0, 16)"><g clip-path="url(#3f0b9dc33f)"><g clip-path="url(#c8f2ba4bc0)"><g clip-path="url(#32f9874c19)"><path fill="#ffffff" d="M 0.890625 0.644531 L 344.109375 0.644531 L 344.109375 343.863281 L 0.890625 343.863281 Z M 0.890625 0.644531 " fill-opacity="1" fill-rule="nonzero"/></g></g></g></g></g></g><g transform="matrix(1, 0, 0, 1, 60, 0)"><g clip-path="url(#b75f49b1ed)"><g fill="#222222" fill-opacity="1"><g transform="translate(0.883405, 246.027133)"><g><path d="M 62.296875 53.203125 L 19.46875 53.203125 L 19.46875 -152.875 L 63.328125 -152.875 L 63.328125 -136 L 64.109375 -136 C 66.960938 -139.8125 70.359375 -143.207031 74.296875 -146.1875 C 78.234375 -149.175781 82.945312 -151.535156 88.4375 -153.265625 C 93.9375 -154.992188 100.40625 -155.859375 107.84375 -155.859375 C 117.53125 -155.859375 126.179688 -153.953125 133.796875 -150.140625 C 141.410156 -146.335938 147.898438 -140.910156 153.265625 -133.859375 C 158.628906 -126.804688 162.71875 -118.4375 165.53125 -108.75 C 168.34375 -99.0625 169.75 -88.289062 169.75 -76.4375 C 169.75 -64.582031 168.320312 -53.765625 165.46875 -43.984375 C 162.613281 -34.210938 158.476562 -25.800781 153.0625 -18.75 C 147.65625 -11.695312 141.101562 -6.265625 133.40625 -2.453125 C 125.707031 1.347656 116.96875 3.25 107.1875 3.25 C 99.320312 3.25 92.554688 2.296875 86.890625 0.390625 C 81.222656 -1.515625 76.460938 -4.003906 72.609375 -7.078125 C 68.753906 -10.148438 65.617188 -13.414062 63.203125 -16.875 L 62.296875 -16.875 Z M 92.921875 -32.046875 C 103.128906 -32.046875 111.128906 -35.703125 116.921875 -43.015625 C 122.722656 -50.328125 125.625 -61.554688 125.625 -76.703125 C 125.625 -91.234375 122.742188 -102.128906 116.984375 -109.390625 C 111.234375 -116.660156 103.210938 -120.296875 92.921875 -120.296875 C 86.347656 -120.296875 80.632812 -118.546875 75.78125 -115.046875 C 70.9375 -111.546875 67.195312 -106.523438 64.5625 -99.984375 C 61.925781 -93.453125 60.609375 -85.691406 60.609375 -76.703125 C 60.609375 -62.515625 63.523438 -51.523438 69.359375 -43.734375 C 75.203125 -35.941406 83.054688 -32.046875 92.921875 -32.046875 Z M 92.921875 -32.046875 "/></g></g></g><g fill="#222222" fill-opacity="1"><g transform="translate(161.222097, 246.027133)"><g><path d="M 26.734375 0 L 26.734375 -47.234375 L 73.578125 -47.234375 L 73.578125 0 Z M 26.734375 0 "/></g></g></g></g></g></g></g></svg>