<svg xmlns="http://www.w3.org/2000/svg" xmlns:xlink="http://www.w3.org/1999/xlink" width="40" zoomAndPan="magnify" viewBox="0 0 30 30.000001" height="40" preserveAspectRatio="xMidYMid meet" version="1.0"><defs><clipPath id="83448a57db"><path d="M 1 1 L 26 1 L 26 26 L 1 26 Z M 1 1 " clip-rule="nonzero"/></clipPath><clipPath id="8a143ccbe3"><path d="M 13.765625 0.792969 L 26.164062 13.191406 L 13.328125 26.027344 L 0.929688 13.628906 Z M 13.765625 0.792969 " clip-rule="nonzero"/></clipPath><clipPath id="1e472b2927"><path d="M 14.792969 1.820312 L 25.140625 12.167969 C 25.410156 12.4375 25.5625 12.808594 25.5625 13.191406 C 25.5625 13.578125 25.410156 13.945312 25.140625 14.21875 L 14.359375 25 C 14.085938 25.273438 13.71875 25.425781 13.332031 25.425781 C 12.945312 25.425781 12.578125 25.273438 12.304688 25 L 1.957031 14.652344 C 1.6875 14.378906 1.535156 14.011719 1.535156 13.625 C 1.535156 13.242188 1.6875 12.871094 1.957031 12.601562 L 12.738281 1.820312 C 13.011719 1.546875 13.378906 1.394531 13.765625 1.394531 C 14.152344 1.394531 14.519531 1.546875 14.792969 1.820312 Z M 14.792969 1.820312 " clip-rule="nonzero"/></clipPath><clipPath id="19b3752391"><path d="M 0.34375 0.324219 L 24.730469 0.324219 L 24.730469 24.476562 L 0.34375 24.476562 Z M 0.34375 0.324219 " clip-rule="nonzero"/></clipPath><clipPath id="dbeb3fa112"><path d="M 12.765625 -0.207031 L 25.164062 12.191406 L 12.328125 25.027344 L -0.0703125 12.628906 Z M 12.765625 -0.207031 " clip-rule="nonzero"/></clipPath><clipPath id="0f50e903d6"><path d="M 13.792969 0.820312 L 24.140625 11.167969 C 24.410156 11.4375 24.5625 11.808594 24.5625 12.191406 C 24.5625 12.578125 24.410156 12.945312 24.140625 13.21875 L 13.359375 24 C 13.085938 24.273438 12.71875 24.425781 12.332031 24.425781 C 11.945312 24.425781 11.578125 24.273438 11.304688 24 L 0.957031 13.652344 C 0.6875 13.378906 0.535156 13.011719 0.535156 12.625 C 0.535156 12.242188 0.6875 11.871094 0.957031 11.601562 L 11.738281 0.820312 C 12.011719 0.546875 12.378906 0.394531 12.765625 0.394531 C 13.152344 0.394531 13.519531 0.546875 13.792969 0.820312 Z M 13.792969 0.820312 " clip-rule="nonzero"/></clipPath><clipPath id="a655d92af9"><rect x="0" width="25" y="0" height="25"/></clipPath><clipPath id="a2135aea3c"><path d="M 1.613281 0.789062 L 27.402344 0.789062 L 27.402344 26.578125 L 1.613281 26.578125 Z M 1.613281 0.789062 " clip-rule="nonzero"/></clipPath><clipPath id="98115aad74"><rect x="0" width="28" y="0" height="27"/></clipPath></defs><g transform="matrix(1, 0, 0, 1, 1, 1)"><g clip-path="url(#98115aad74)"><g clip-path="url(#83448a57db)"><g clip-path="url(#8a143ccbe3)"><g clip-path="url(#1e472b2927)"><g transform="matrix(1, 0, 0, 1, 1, 1)"><g clip-path="url(#a655d92af9)"><g clip-path="url(#19b3752391)"><g clip-path="url(#dbeb3fa112)"><g clip-path="url(#0f50e903d6)"><path fill="#ffffff" d="M 12.765625 -0.207031 L 25.164062 12.191406 L 12.328125 25.027344 L -0.0703125 12.628906 Z M 12.765625 -0.207031 " fill-opacity="1" fill-rule="nonzero"/></g></g></g></g></g></g></g></g><g clip-path="url(#a2135aea3c)"><path fill="#f03c2e" d="M 26.917969 12.535156 L 15.65625 1.277344 C 15.5 1.121094 15.320312 1 15.117188 0.917969 C 14.914062 0.832031 14.703125 0.792969 14.484375 0.792969 C 14.261719 0.792969 14.050781 0.832031 13.847656 0.917969 C 13.644531 1 13.464844 1.121094 13.308594 1.277344 L 10.972656 3.613281 L 13.9375 6.582031 C 14.628906 6.339844 15.417969 6.503906 15.964844 7.054688 C 16.234375 7.320312 16.410156 7.640625 16.492188 8.007812 C 16.578125 8.375 16.558594 8.738281 16.433594 9.09375 L 19.292969 11.953125 C 19.984375 11.714844 20.78125 11.867188 21.335938 12.421875 C 21.519531 12.609375 21.664062 12.820312 21.761719 13.0625 C 21.863281 13.304688 21.914062 13.558594 21.914062 13.820312 C 21.914062 14.082031 21.863281 14.335938 21.761719 14.578125 C 21.664062 14.820312 21.519531 15.03125 21.335938 15.21875 C 21.148438 15.402344 20.9375 15.546875 20.691406 15.648438 C 20.449219 15.746094 20.199219 15.796875 19.9375 15.796875 C 19.675781 15.796875 19.421875 15.746094 19.179688 15.644531 C 18.9375 15.546875 18.722656 15.402344 18.539062 15.21875 C 17.957031 14.636719 17.816406 13.78125 18.109375 13.066406 L 15.441406 10.402344 L 15.441406 17.417969 C 15.636719 17.515625 15.8125 17.636719 15.964844 17.792969 C 16.152344 17.976562 16.292969 18.191406 16.394531 18.433594 C 16.496094 18.675781 16.546875 18.925781 16.546875 19.1875 C 16.546875 19.449219 16.496094 19.703125 16.394531 19.945312 C 16.292969 20.1875 16.152344 20.402344 15.964844 20.585938 C 15.78125 20.773438 15.566406 20.914062 15.324219 21.015625 C 15.082031 21.113281 14.832031 21.164062 14.570312 21.164062 C 14.308594 21.164062 14.054688 21.113281 13.8125 21.015625 C 13.570312 20.914062 13.355469 20.773438 13.171875 20.585938 C 12.984375 20.402344 12.84375 20.1875 12.742188 19.945312 C 12.640625 19.703125 12.59375 19.449219 12.59375 19.1875 C 12.59375 18.925781 12.640625 18.675781 12.742188 18.433594 C 12.84375 18.191406 12.984375 17.976562 13.171875 17.792969 C 13.363281 17.601562 13.574219 17.457031 13.820312 17.359375 L 13.820312 10.28125 C 13.582031 10.183594 13.363281 10.039062 13.171875 9.847656 C 12.886719 9.566406 12.707031 9.226562 12.628906 8.832031 C 12.550781 8.4375 12.589844 8.058594 12.746094 7.6875 L 9.820312 4.765625 L 2.101562 12.476562 C 1.945312 12.632812 1.824219 12.8125 1.738281 13.015625 C 1.65625 13.21875 1.613281 13.429688 1.613281 13.652344 C 1.613281 13.871094 1.65625 14.082031 1.738281 14.285156 C 1.824219 14.492188 1.945312 14.671875 2.101562 14.824219 L 13.359375 26.085938 C 13.515625 26.238281 13.695312 26.359375 13.898438 26.445312 C 14.101562 26.527344 14.3125 26.570312 14.535156 26.570312 C 14.753906 26.570312 14.964844 26.527344 15.167969 26.445312 C 15.375 26.359375 15.554688 26.238281 15.707031 26.085938 L 26.917969 14.894531 C 27.070312 14.738281 27.191406 14.558594 27.277344 14.355469 C 27.359375 14.152344 27.402344 13.941406 27.402344 13.71875 C 27.402344 13.5 27.359375 13.289062 27.277344 13.082031 C 27.191406 12.878906 27.070312 12.699219 26.917969 12.546875 " fill-opacity="1" fill-rule="nonzero"/></g></g></g></svg>