<svg xmlns="http://www.w3.org/2000/svg" xmlns:xlink="http://www.w3.org/1999/xlink" width="40" zoomAndPan="magnify" viewBox="0 0 30 30.000001" height="40" preserveAspectRatio="xMidYMid meet" version="1.0"><defs><clipPath id="88622b4a24"><path d="M 6.582031 4.445312 L 23.710938 4.445312 L 23.710938 21.90625 L 6.582031 21.90625 Z M 6.582031 4.445312 " clip-rule="nonzero"/></clipPath><clipPath id="8341bfcc9f"><path d="M 8.03125 4.445312 L 22.257812 4.445312 C 23.058594 4.445312 23.710938 5.09375 23.710938 5.894531 L 23.710938 20.410156 C 23.710938 21.214844 23.058594 21.863281 22.257812 21.863281 L 8.03125 21.863281 C 7.230469 21.863281 6.582031 21.214844 6.582031 20.410156 L 6.582031 5.894531 C 6.582031 5.09375 7.230469 4.445312 8.03125 4.445312 Z M 8.03125 4.445312 " clip-rule="nonzero"/></clipPath><clipPath id="73fc745e73"><path d="M 0.582031 0.445312 L 17.710938 0.445312 L 17.710938 17.90625 L 0.582031 17.90625 Z M 0.582031 0.445312 " clip-rule="nonzero"/></clipPath><clipPath id="fbf4138597"><path d="M 2.03125 0.445312 L 16.257812 0.445312 C 17.058594 0.445312 17.710938 1.09375 17.710938 1.894531 L 17.710938 16.410156 C 17.710938 17.214844 17.058594 17.863281 16.257812 17.863281 L 2.03125 17.863281 C 1.230469 17.863281 0.582031 17.214844 0.582031 16.410156 L 0.582031 1.894531 C 0.582031 1.09375 1.230469 0.445312 2.03125 0.445312 Z M 2.03125 0.445312 " clip-rule="nonzero"/></clipPath><clipPath id="659465aecf"><rect x="0" width="18" y="0" height="18"/></clipPath><clipPath id="3a4c98f655"><path d="M 3.386719 1.539062 L 26.613281 1.539062 L 26.613281 27.667969 L 3.386719 27.667969 Z M 3.386719 1.539062 " clip-rule="nonzero"/></clipPath></defs><g clip-path="url(#88622b4a24)"><g clip-path="url(#8341bfcc9f)"><g transform="matrix(1, 0, 0, 1, 6, 4)"><g clip-path="url(#659465aecf)"><g clip-path="url(#73fc745e73)"><g clip-path="url(#fbf4138597)"><path fill="#ffffff" d="M 0.582031 0.445312 L 17.710938 0.445312 L 17.710938 17.839844 L 0.582031 17.839844 Z M 0.582031 0.445312 " fill-opacity="1" fill-rule="nonzero"/></g></g></g></g></g></g><g clip-path="url(#3a4c98f655)"><path fill="#e54c25" d="M 26.609375 1.539062 L 24.558594 24.757812 L 15 27.488281 L 5.441406 24.757812 L 3.390625 1.539062 Z M 9.402344 16.5625 L 12.132812 16.5625 L 12.199219 18.269531 L 15 19.226562 L 17.800781 18.269531 L 18.003906 15.199219 L 11.996094 15.199219 L 11.859375 12.464844 L 18.140625 12.464844 L 18.34375 9.734375 L 8.925781 9.734375 L 8.71875 7.003906 L 21.214844 7.003906 L 20.875 12.464844 L 20.394531 20.320312 L 15 22.09375 L 9.605469 20.320312 Z M 9.402344 16.5625 " fill-opacity="1" fill-rule="evenodd"/></g></svg>