<svg xmlns="http://www.w3.org/2000/svg" xmlns:xlink="http://www.w3.org/1999/xlink" width="40" zoomAndPan="magnify" viewBox="0 0 30 30.000001" height="40" preserveAspectRatio="xMidYMid meet" version="1.0"><defs><clipPath id="2b810a752c"><path d="M 3.476562 1 L 26.699219 1 L 26.699219 27.765625 L 3.476562 27.765625 Z M 3.476562 1 " clip-rule="nonzero"/></clipPath></defs><g clip-path="url(#2b810a752c)"><path fill="#e44d26" d="M 26.695312 1.90625 L 24.582031 25.523438 L 15.078125 28.148438 L 5.601562 25.527344 L 3.488281 1.90625 Z M 26.695312 1.90625 " fill-opacity="1" fill-rule="nonzero"/></g><path fill="#f16529" d="M 15.09375 26.140625 L 22.769531 24.019531 L 24.578125 3.839844 L 15.09375 3.839844 Z M 15.09375 26.140625 " fill-opacity="1" fill-rule="nonzero"/><path fill="#ebebeb" d="M 10.984375 9.632812 L 15.09375 9.632812 L 15.09375 6.734375 L 7.808594 6.734375 L 7.878906 7.511719 L 8.589844 15.496094 L 15.09375 15.496094 L 15.09375 12.597656 L 11.246094 12.597656 Z M 10.984375 9.632812 " fill-opacity="1" fill-rule="nonzero"/><path fill="#ebebeb" d="M 11.636719 16.941406 L 8.722656 16.941406 L 9.128906 21.492188 L 15.078125 23.140625 L 15.09375 23.136719 L 15.09375 20.121094 L 15.078125 20.125 L 11.84375 19.253906 Z M 11.636719 16.941406 " fill-opacity="1" fill-rule="nonzero"/><path fill="#ffffff" d="M 15.082031 15.496094 L 18.660156 15.496094 L 18.320312 19.25 L 15.082031 20.125 L 15.082031 23.136719 L 21.039062 21.492188 L 21.082031 21.003906 L 21.765625 13.375 L 21.835938 12.597656 L 15.082031 12.597656 Z M 15.082031 15.496094 " fill-opacity="1" fill-rule="nonzero"/><path fill="#ffffff" d="M 15.082031 9.625 L 15.082031 9.632812 L 22.097656 9.632812 L 22.15625 8.980469 L 22.289062 7.511719 L 22.359375 6.734375 L 15.082031 6.734375 Z M 15.082031 9.625 " fill-opacity="1" fill-rule="nonzero"/></svg>