<svg xmlns="http://www.w3.org/2000/svg" xmlns:xlink="http://www.w3.org/1999/xlink" width="40" zoomAndPan="magnify" viewBox="0 0 30 30.000001" height="40" preserveAspectRatio="xMidYMid meet" version="1.0"><defs><clipPath id="71dfc34524"><path d="M 1.933594 2.425781 L 28.066406 2.425781 L 28.066406 26.378906 L 1.933594 26.378906 Z M 1.933594 2.425781 " clip-rule="nonzero"/></clipPath></defs><g clip-path="url(#71dfc34524)"><path fill="#ffffff" d="M 23.398438 10.433594 C 23.128906 10.339844 22.851562 10.25 22.5625 10.167969 C 22.609375 9.976562 22.652344 9.785156 22.691406 9.597656 C 23.324219 6.511719 22.910156 4.027344 21.492188 3.210938 C 20.132812 2.425781 17.90625 3.242188 15.660156 5.199219 C 15.445312 5.386719 15.226562 5.585938 15.011719 5.792969 C 14.867188 5.65625 14.722656 5.523438 14.582031 5.394531 C 12.226562 3.304688 9.867188 2.421875 8.449219 3.242188 C 7.089844 4.03125 6.6875 6.367188 7.257812 9.289062 C 7.3125 9.570312 7.378906 9.859375 7.453125 10.152344 C 7.117188 10.246094 6.796875 10.347656 6.488281 10.457031 C 3.726562 11.417969 1.964844 12.925781 1.964844 14.492188 C 1.964844 16.105469 3.855469 17.726562 6.730469 18.710938 C 6.957031 18.789062 7.195312 18.863281 7.4375 18.929688 C 7.355469 19.246094 7.289062 19.558594 7.230469 19.863281 C 6.6875 22.734375 7.113281 25.015625 8.46875 25.796875 C 9.867188 26.601562 12.214844 25.773438 14.503906 23.773438 C 14.683594 23.617188 14.867188 23.449219 15.046875 23.273438 C 15.285156 23.5 15.519531 23.714844 15.753906 23.914062 C 17.96875 25.820312 20.15625 26.589844 21.511719 25.808594 C 22.910156 25 23.363281 22.546875 22.773438 19.570312 C 22.730469 19.339844 22.675781 19.109375 22.617188 18.871094 C 22.78125 18.824219 22.945312 18.773438 23.101562 18.71875 C 26.09375 17.730469 28.035156 16.128906 28.035156 14.492188 C 28.035156 12.921875 26.214844 11.402344 23.398438 10.433594 Z M 22.753906 17.664062 C 22.609375 17.710938 22.464844 17.753906 22.316406 17.800781 C 21.984375 16.753906 21.539062 15.644531 20.992188 14.496094 C 21.515625 13.375 21.941406 12.28125 22.261719 11.242188 C 22.53125 11.320312 22.789062 11.398438 23.039062 11.484375 C 25.449219 12.316406 26.921875 13.546875 26.921875 14.492188 C 26.921875 15.5 25.332031 16.808594 22.753906 17.664062 Z M 21.679688 19.785156 C 21.941406 21.101562 21.980469 22.292969 21.804688 23.226562 C 21.652344 24.0625 21.339844 24.621094 20.953125 24.84375 C 20.132812 25.320312 18.375 24.703125 16.480469 23.070312 C 16.261719 22.882812 16.042969 22.683594 15.824219 22.472656 C 16.558594 21.667969 17.292969 20.734375 18.007812 19.699219 C 19.269531 19.585938 20.460938 19.402344 21.539062 19.152344 C 21.59375 19.367188 21.640625 19.578125 21.679688 19.785156 Z M 10.851562 24.761719 C 10.050781 25.046875 9.410156 25.054688 9.023438 24.832031 C 8.203125 24.355469 7.859375 22.523438 8.328125 20.070312 C 8.378906 19.789062 8.441406 19.5 8.515625 19.203125 C 9.585938 19.441406 10.765625 19.609375 12.03125 19.710938 C 12.75 20.726562 13.507812 21.660156 14.269531 22.476562 C 14.101562 22.636719 13.9375 22.789062 13.769531 22.933594 C 12.761719 23.820312 11.746094 24.445312 10.851562 24.761719 Z M 7.09375 17.65625 C 5.820312 17.222656 4.769531 16.65625 4.050781 16.039062 C 3.402344 15.488281 3.078125 14.9375 3.078125 14.492188 C 3.078125 13.542969 4.492188 12.332031 6.855469 11.507812 C 7.140625 11.40625 7.441406 11.3125 7.75 11.226562 C 8.078125 12.285156 8.503906 13.394531 9.023438 14.519531 C 8.5 15.65625 8.066406 16.785156 7.734375 17.859375 C 7.511719 17.792969 7.296875 17.726562 7.09375 17.65625 Z M 8.351562 9.074219 C 7.863281 6.570312 8.1875 4.683594 9.007812 4.207031 C 9.878906 3.703125 11.808594 4.421875 13.839844 6.226562 C 13.972656 6.34375 14.101562 6.464844 14.234375 6.589844 C 13.476562 7.402344 12.726562 8.328125 12.011719 9.335938 C 10.785156 9.449219 9.609375 9.632812 8.53125 9.878906 C 8.464844 9.605469 8.402344 9.335938 8.351562 9.074219 Z M 19.597656 11.851562 C 19.339844 11.40625 19.074219 10.972656 18.804688 10.546875 C 19.636719 10.652344 20.433594 10.792969 21.183594 10.964844 C 20.960938 11.683594 20.679688 12.4375 20.347656 13.210938 C 20.113281 12.757812 19.863281 12.308594 19.597656 11.851562 Z M 15.011719 7.386719 C 15.527344 7.941406 16.039062 8.5625 16.546875 9.238281 C 16.035156 9.214844 15.519531 9.199219 15 9.199219 C 14.484375 9.199219 13.972656 9.210938 13.464844 9.238281 C 13.972656 8.570312 14.492188 7.949219 15.011719 7.386719 Z M 10.398438 11.859375 C 10.140625 12.304688 9.894531 12.757812 9.660156 13.207031 C 9.335938 12.4375 9.058594 11.683594 8.832031 10.953125 C 9.578125 10.785156 10.371094 10.648438 11.195312 10.546875 C 10.921875 10.972656 10.65625 11.410156 10.398438 11.859375 Z M 11.21875 18.515625 C 10.367188 18.421875 9.5625 18.292969 8.816406 18.128906 C 9.046875 17.386719 9.332031 16.613281 9.660156 15.828125 C 9.894531 16.277344 10.140625 16.730469 10.402344 17.175781 C 10.664062 17.632812 10.9375 18.078125 11.21875 18.515625 Z M 15.042969 21.675781 C 14.515625 21.105469 13.988281 20.476562 13.472656 19.796875 C 13.972656 19.816406 14.484375 19.828125 15 19.828125 C 15.53125 19.828125 16.058594 19.816406 16.574219 19.792969 C 16.066406 20.484375 15.554688 21.113281 15.042969 21.675781 Z M 20.359375 15.789062 C 20.707031 16.582031 21 17.351562 21.234375 18.082031 C 20.480469 18.253906 19.664062 18.390625 18.804688 18.496094 C 19.074219 18.066406 19.339844 17.625 19.605469 17.167969 C 19.871094 16.707031 20.121094 16.246094 20.359375 15.789062 Z M 18.636719 16.613281 C 18.230469 17.320312 17.8125 17.992188 17.386719 18.628906 C 16.613281 18.683594 15.816406 18.714844 15 18.714844 C 14.1875 18.714844 13.398438 18.6875 12.640625 18.640625 C 12.199219 17.996094 11.769531 17.320312 11.363281 16.617188 C 10.960938 15.921875 10.589844 15.21875 10.253906 14.519531 C 10.589844 13.816406 10.960938 13.113281 11.363281 12.414062 L 11.363281 12.417969 C 11.765625 11.71875 12.1875 11.042969 12.625 10.402344 C 13.402344 10.34375 14.195312 10.3125 15 10.3125 C 15.808594 10.3125 16.601562 10.34375 17.378906 10.402344 C 17.808594 11.039062 18.230469 11.710938 18.636719 12.410156 C 19.042969 13.117188 19.417969 13.816406 19.757812 14.503906 C 19.421875 15.199219 19.046875 15.90625 18.636719 16.613281 Z M 20.9375 4.175781 C 21.808594 4.679688 22.148438 6.707031 21.601562 9.371094 C 21.566406 9.539062 21.527344 9.714844 21.484375 9.890625 C 20.402344 9.640625 19.226562 9.453125 17.996094 9.339844 C 17.28125 8.320312 16.539062 7.390625 15.792969 6.589844 C 15.992188 6.394531 16.195312 6.210938 16.390625 6.039062 C 18.316406 4.363281 20.117188 3.703125 20.9375 4.175781 Z M 15 12.164062 C 16.285156 12.164062 17.328125 13.203125 17.328125 14.492188 C 17.328125 15.777344 16.285156 16.820312 15 16.820312 C 13.714844 16.820312 12.671875 15.777344 12.671875 14.492188 C 12.671875 13.203125 13.714844 12.164062 15 12.164062 Z M 15 12.164062 " fill-opacity="1" fill-rule="nonzero"/></g></svg>