<svg xmlns="http://www.w3.org/2000/svg" xmlns:xlink="http://www.w3.org/1999/xlink" width="40" zoomAndPan="magnify" viewBox="0 0 30 30.000001" height="40" preserveAspectRatio="xMidYMid meet" version="1.0"><defs><clipPath id="5260a44f03"><path d="M 5 15 L 25 15 L 25 27.058594 L 5 27.058594 Z M 5 15 " clip-rule="nonzero"/></clipPath><clipPath id="346e665a82"><path d="M 11 1.65625 L 21 1.65625 L 21 17 L 11 17 Z M 11 1.65625 " clip-rule="nonzero"/></clipPath></defs><g clip-path="url(#5260a44f03)"><path fill="#ffffff" d="M 11.75 21.347656 C 11.75 21.347656 10.769531 21.941406 12.429688 22.113281 C 14.429688 22.367188 15.492188 22.328125 17.703125 21.902344 C 18.148438 22.175781 18.617188 22.402344 19.105469 22.582031 C 14.132812 24.707031 7.835938 22.453125 11.75 21.347656 Z M 11.113281 18.582031 C 11.113281 18.582031 10.050781 19.390625 11.707031 19.5625 C 13.878906 19.773438 15.578125 19.816406 18.515625 19.222656 C 18.804688 19.515625 19.144531 19.730469 19.535156 19.859375 C 13.539062 21.644531 6.816406 20.03125 11.113281 18.585938 Z M 22.851562 23.429688 C 22.851562 23.429688 23.574219 24.027344 22.042969 24.496094 C 19.195312 25.347656 10.09375 25.601562 7.539062 24.496094 C 6.648438 24.113281 8.347656 23.558594 8.894531 23.472656 C 9.445312 23.347656 9.746094 23.347656 9.746094 23.347656 C 8.765625 22.667969 3.238281 24.75 6.9375 25.34375 C 17.101562 27.003906 25.480469 24.621094 22.84375 23.429688 Z M 12.210938 15.691406 C 12.210938 15.691406 7.574219 16.796875 10.550781 17.179688 C 11.828125 17.351562 14.335938 17.308594 16.675781 17.136719 C 18.589844 16.96875 20.503906 16.628906 20.503906 16.628906 C 20.503906 16.628906 19.824219 16.925781 19.355469 17.222656 C 14.636719 18.457031 5.574219 17.902344 8.171875 16.628906 C 10.382812 15.566406 12.210938 15.691406 12.210938 15.691406 Z M 20.503906 20.328125 C 25.265625 17.859375 23.054688 15.480469 21.523438 15.777344 C 21.140625 15.863281 20.972656 15.945312 20.972656 15.945312 C 20.972656 15.945312 21.097656 15.691406 21.394531 15.605469 C 24.414062 14.542969 26.796875 18.796875 20.417969 20.453125 C 20.417969 20.453125 20.460938 20.410156 20.503906 20.328125 Z M 12.679688 27.046875 C 17.273438 27.34375 24.289062 26.875 24.460938 24.707031 C 24.460938 24.707031 24.121094 25.558594 20.675781 26.195312 C 16.761719 26.917969 11.914062 26.832031 9.0625 26.363281 C 9.0625 26.363281 9.660156 26.875 12.679688 27.046875 Z M 12.679688 27.046875 " fill-opacity="1" fill-rule="nonzero"/></g><g clip-path="url(#346e665a82)"><path fill="#f58219" d="M 17.621094 1.65625 C 17.621094 1.65625 20.257812 4.335938 15.109375 8.375 C 10.984375 11.652344 14.175781 13.523438 15.109375 15.648438 C 12.6875 13.480469 10.941406 11.566406 12.132812 9.78125 C 13.875 7.140625 18.683594 5.875 17.621094 1.65625 Z M 16.265625 13.863281 C 17.5 15.265625 15.925781 16.542969 15.925781 16.542969 C 15.925781 16.542969 19.074219 14.925781 17.628906 12.925781 C 16.308594 11.011719 15.285156 10.078125 20.816406 6.886719 C 20.816406 6.886719 12.097656 9.058594 16.265625 13.863281 Z M 16.265625 13.863281 " fill-opacity="1" fill-rule="nonzero"/></g></svg>